<svg version="1.1" id="Layer_1" xmlns="http://www.w3.org/2000/svg" xmlns:xlink="http://www.w3.org/1999/xlink" x="0px" y="0px"
	 width="100%" viewBox="0 0 250 250" enable-background="new 0 0 250 250" xml:space="preserve">
<path fill="#0E5FAF" opacity="1.000000" stroke="none" 
	d="
M103.000000,1.000000 
	C118.020897,1.000000 133.041794,1.000000 148.419922,1.400002 
	C157.987549,4.863245 167.360260,7.517684 176.366776,11.094289 
	C187.365570,15.462065 197.580994,21.350729 205.576004,29.973007 
	C183.549408,30.072563 161.984009,30.072563 140.169983,30.072563 
	C140.169983,38.623966 140.169983,46.661755 140.169983,54.939724 
	C169.981125,54.939724 199.526627,54.939724 229.395218,55.064682 
	C234.504822,64.771652 239.291367,74.353676 243.930710,83.995514 
	C243.876953,84.010796 243.970398,83.966248 244.330170,84.055191 
	C244.685440,84.744354 244.774399,85.300034 244.445206,85.829063 
	C209.425171,85.802414 174.823303,85.802414 140.263412,85.802414 
	C140.263412,94.356537 140.263412,102.421379 140.263412,110.803642 
	C144.597061,110.803642 148.570724,110.796989 152.544357,110.804695 
	C185.362900,110.868294 218.181458,110.934555 251.000000,111.000000 
	C251.000000,120.687561 251.000000,130.375122 250.533722,140.584991 
	C194.512390,141.107300 138.957321,141.107300 83.382812,141.107300 
	C83.382812,121.475426 83.382812,102.295708 83.382812,82.738586 
	C102.373650,82.738586 120.957077,82.738586 139.572037,82.738586 
	C139.572037,74.302223 139.572037,66.253151 139.572037,57.836449 
	C120.630676,57.836449 102.041695,57.836449 82.950424,57.836449 
	C82.950424,41.026848 82.950424,24.589693 83.293243,7.987220 
	C89.278511,6.214364 94.937592,4.661223 100.546928,2.945458 
	C101.476044,2.661263 102.187798,1.666430 103.000000,1.000000 
z"/>
<path fill="#FDFEFE" opacity="1.000000" stroke="none" 
	d="
M82.950424,8.152538 
	C82.950424,24.589693 82.950424,41.026848 82.950424,57.836449 
	C102.041695,57.836449 120.630676,57.836449 139.572037,57.836449 
	C139.572037,66.253151 139.572037,74.302223 139.572037,82.738586 
	C120.957077,82.738586 102.373650,82.738586 83.382812,82.738586 
	C83.382812,102.295708 83.382812,121.475426 83.382812,141.107300 
	C138.957321,141.107300 194.512390,141.107300 250.533722,141.053650 
	C251.000000,143.370560 251.000000,145.741104 250.652924,148.250183 
	C249.871628,149.377792 249.320831,150.333145 249.022919,151.361725 
	C247.598892,156.278549 246.243469,161.215225 244.406677,166.171814 
	C165.011978,166.180832 86.074196,166.162888 7.014789,165.764618 
	C5.593730,160.548859 4.354078,155.695694 2.933137,150.896225 
	C2.709155,150.139679 1.664961,149.625977 1.000002,149.000000 
	C1.000000,146.629440 1.000000,144.258896 1.466342,141.497131 
	C20.486610,141.105911 39.040539,141.105911 57.685909,141.105911 
	C57.685909,121.496002 57.685909,102.456718 57.685909,82.954262 
	C40.999714,82.954262 24.576904,82.954262 8.093794,82.579269 
	C8.353912,81.480659 8.627965,80.732086 9.001879,80.037254 
	C12.989685,72.626854 16.993319,65.224983 21.456635,57.879261 
	C33.824230,57.937756 45.727795,57.937756 57.804581,57.937756 
	C57.804581,45.215504 57.804581,33.110210 57.960114,20.677343 
	C66.393906,16.284027 74.672165,12.218283 82.950424,8.152538 
z"/>
<path fill="#0D5EAF" opacity="1.000000" stroke="none" 
	d="
M149.000000,251.000000 
	C133.979111,251.000000 118.958214,251.000000 103.578430,250.599915 
	C94.009590,247.137207 84.636925,244.484238 75.631310,240.907166 
	C64.633987,236.538986 54.417549,230.653381 46.425247,222.029190 
	C98.945427,221.918655 151.004517,221.905930 203.063599,221.905487 
	C204.054367,221.905472 205.045120,222.050781 205.888824,222.428619 
	C190.008240,236.377930 171.730667,244.758698 151.454163,249.062881 
	C150.540237,249.256882 149.813782,250.334137 149.000000,251.000000 
z"/>
<path fill="#0D5EAF" opacity="1.000000" stroke="none" 
	d="
M8.154095,82.954262 
	C24.576904,82.954262 40.999714,82.954262 57.685909,82.954262 
	C57.685909,102.456718 57.685909,121.496002 57.685909,141.105911 
	C39.040539,141.105911 20.486610,141.105911 1.466342,141.052948 
	C1.000000,128.645767 1.000000,116.291542 1.400046,103.579201 
	C2.198134,102.394234 2.716881,101.603218 2.974754,100.734741 
	C4.731893,94.817024 6.434136,88.883018 8.154095,82.954262 
z"/>
<path fill="#000000" opacity="1.000000" stroke="none" 
	d="
M8.093794,82.579269 
	C6.434136,88.883018 4.731893,94.817024 2.974754,100.734741 
	C2.716881,101.603218 2.198134,102.394234 1.400046,103.110542 
	C1.000000,69.073059 1.000000,35.146118 1.000000,1.000000 
	C34.687244,1.000000 68.374962,1.000000 102.531342,1.000000 
	C102.187798,1.666430 101.476044,2.661263 100.546928,2.945458 
	C94.937592,4.661223 89.278511,6.214364 83.293243,7.987220 
	C74.672165,12.218283 66.393906,16.284027 57.614758,20.684708 
	C53.051651,24.020634 48.763821,26.763210 44.971897,30.073797 
	C35.689445,38.177952 26.931421,46.798779 20.992601,57.820766 
	C16.993319,65.224983 12.989685,72.626854 9.001879,80.037254 
	C8.627965,80.732086 8.353912,81.480659 8.093794,82.579269 
z"/>
<path fill="#000000" opacity="1.000000" stroke="none" 
	d="
M244.863373,85.855713 
	C244.774399,85.300034 244.685440,84.744354 244.298950,84.093781 
	C244.001434,83.998878 244.077911,83.935692 244.077911,83.935692 
	C239.291367,74.353676 234.504822,64.771652 229.361008,54.709671 
	C226.633072,50.996990 224.595154,47.438557 221.819107,44.602657 
	C216.790588,39.465710 211.322052,34.759487 206.037216,29.873449 
	C197.580994,21.350729 187.365570,15.462065 176.366776,11.094289 
	C167.360260,7.517684 157.987549,4.863245 148.888580,1.400002 
	C182.926941,1.000000 216.853867,1.000000 251.000000,1.000000 
	C251.000000,34.687244 251.000000,68.374962 250.652863,102.836739 
	C249.871887,102.621315 249.322037,101.665451 249.023972,100.636635 
	C247.599670,95.720505 246.243652,90.784592 244.863373,85.855713 
z"/>
<path fill="#000000" opacity="1.000000" stroke="none" 
	d="
M45.964146,222.128281 
	C54.417549,230.653381 64.633987,236.538986 75.631310,240.907166 
	C84.636925,244.484238 94.009590,247.137207 103.109772,250.599915 
	C69.073067,251.000000 35.146126,251.000000 1.000000,251.000000 
	C1.000000,217.312759 1.000000,183.625031 1.000002,149.468658 
	C1.664961,149.625977 2.709155,150.139679 2.933137,150.896225 
	C4.354078,155.695694 5.593730,160.548859 6.955233,166.123169 
	C12.320181,176.927689 17.623056,186.993332 22.961039,197.414459 
	C25.366905,201.002869 27.404882,204.561539 30.181049,207.397614 
	C35.209953,212.535049 40.678905,217.241760 45.964146,222.128281 
z"/>
<path fill="#000000" opacity="1.000000" stroke="none" 
	d="
M149.468658,251.000000 
	C149.813782,250.334137 150.540237,249.256882 151.454163,249.062881 
	C171.730667,244.758698 190.008240,236.377930 206.238068,222.364746 
	C210.691605,218.300766 214.937042,214.857986 218.527603,210.831268 
	C222.365067,206.527664 225.584732,201.673172 229.397064,196.934372 
	C234.767929,186.588013 239.815781,176.366425 244.863617,166.144836 
	C246.243469,161.215225 247.598892,156.278549 249.022919,151.361725 
	C249.320831,150.333145 249.871628,149.377792 250.652924,148.694336 
	C251.000000,182.926941 251.000000,216.853867 251.000000,251.000000 
	C217.312759,251.000000 183.625031,251.000000 149.468658,251.000000 
z"/>
<path fill="#FCFDFE" opacity="1.000000" stroke="none" 
	d="
M244.445190,85.829063 
	C246.243652,90.784592 247.599670,95.720505 249.023972,100.636635 
	C249.322037,101.665451 249.871887,102.621315 250.652863,103.305397 
	C251.000000,105.370560 251.000000,107.741112 251.000000,110.555840 
	C218.181458,110.934555 185.362900,110.868294 152.544357,110.804695 
	C148.570724,110.796989 144.597061,110.803642 140.263412,110.803642 
	C140.263412,102.421379 140.263412,94.356537 140.263412,85.802414 
	C174.823303,85.802414 209.425171,85.802414 244.445190,85.829063 
z"/>
<path fill="#FDFEFF" opacity="1.000000" stroke="none" 
	d="
M205.576004,29.973007 
	C211.322052,34.759487 216.790588,39.465710 221.819107,44.602657 
	C224.595154,47.438557 226.633072,50.996990 229.037933,54.584717 
	C199.526627,54.939724 169.981125,54.939724 140.169983,54.939724 
	C140.169983,46.661755 140.169983,38.623966 140.169983,30.072563 
	C161.984009,30.072563 183.549408,30.072563 205.576004,29.973007 
z"/>
<path fill="#0558AC" opacity="1.000000" stroke="none" 
	d="
M244.032639,83.960289 
	C243.970398,83.966248 243.876953,84.010796 243.930710,83.995514 
	C244.077911,83.935692 244.001434,83.998878 244.032639,83.960289 
z"/>
<path fill="#0D5EAF" opacity="1.000000" stroke="none" 
	d="
M244.406677,166.171814 
	C239.815781,176.366425 234.767929,186.588013 228.929077,196.856873 
	C160.728348,196.895569 93.318649,196.886185 25.908941,196.885910 
	C24.914606,196.885910 23.920269,196.998795 22.925934,197.058990 
	C17.623056,186.993332 12.320181,176.927689 7.076860,166.503479 
	C86.074196,166.162888 165.011978,166.180832 244.406677,166.171814 
z"/>
<path fill="#0F5FB0" opacity="1.000000" stroke="none" 
	d="
M21.456635,57.879261 
	C26.931421,46.798779 35.689445,38.177952 44.971897,30.073797 
	C48.763821,26.763210 53.051651,24.020634 57.459229,21.012280 
	C57.804581,33.110210 57.804581,45.215504 57.804581,57.937756 
	C45.727795,57.937756 33.824230,57.937756 21.456635,57.879261 
z"/>
<path fill="#FDFEFF" opacity="1.000000" stroke="none" 
	d="
M22.961039,197.414459 
	C23.920269,196.998795 24.914606,196.885910 25.908941,196.885910 
	C93.318649,196.886185 160.728348,196.895569 228.606064,196.981644 
	C225.584732,201.673172 222.365067,206.527664 218.527603,210.831268 
	C214.937042,214.857986 210.691605,218.300766 206.385132,222.064407 
	C205.045120,222.050781 204.054367,221.905472 203.063599,221.905487 
	C151.004517,221.905930 98.945427,221.918655 46.425247,222.029190 
	C40.678905,217.241760 35.209953,212.535049 30.181049,207.397614 
	C27.404882,204.561539 25.366905,201.002869 22.961039,197.414459 
z"/>
</svg>